<svg width="1500" height="1500" viewBox="0 0 1500 1500" fill="none" xmlns="http://www.w3.org/2000/svg">
<rect width="1500" height="1500" fill="#3D3846"/>
<path d="M360 745H308.7L222.9 615.1V745H171.6V534.4H222.9L308.7 664.9V534.4H360V745ZM422.986 560.2C413.986 560.2 406.586 557.6 400.786 552.4C395.186 547 392.386 540.4 392.386 532.6C392.386 524.6 395.186 518 400.786 512.8C406.586 507.4 413.986 504.7 422.986 504.7C431.786 504.7 438.986 507.4 444.586 512.8C450.386 518 453.286 524.6 453.286 532.6C453.286 540.4 450.386 547 444.586 552.4C438.986 557.6 431.786 560.2 422.986 560.2ZM448.486 577.6V745H397.186V577.6H448.486ZM475.463 661.3C475.463 643.9 478.963 628.7 485.963 615.7C493.163 602.7 503.063 592.7 515.663 585.7C528.463 578.7 543.063 575.2 559.463 575.2C580.463 575.2 597.963 580.7 611.963 591.7C626.163 602.7 635.463 618.2 639.863 638.2H585.263C580.663 625.4 571.763 619 558.563 619C549.163 619 541.663 622.7 536.063 630.1C530.463 637.3 527.663 647.7 527.663 661.3C527.663 674.9 530.463 685.4 536.063 692.8C541.663 700 549.163 703.6 558.563 703.6C571.763 703.6 580.663 697.2 585.263 684.4H639.863C635.463 704 626.163 719.4 611.963 730.6C597.763 741.8 580.263 747.4 559.463 747.4C543.063 747.4 528.463 743.9 515.663 736.9C503.063 729.9 493.163 719.9 485.963 706.9C478.963 693.9 475.463 678.7 475.463 661.3ZM743.503 747.4C727.103 747.4 712.303 743.9 699.103 736.9C686.103 729.9 675.803 719.9 668.203 706.9C660.803 693.9 657.103 678.7 657.103 661.3C657.103 644.1 660.903 629 668.503 616C676.103 602.8 686.503 592.7 699.703 585.7C712.903 578.7 727.703 575.2 744.103 575.2C760.503 575.2 775.303 578.7 788.503 585.7C801.703 592.7 812.103 602.8 819.703 616C827.303 629 831.103 644.1 831.103 661.3C831.103 678.5 827.203 693.7 819.403 706.9C811.803 719.9 801.303 729.9 787.903 736.9C774.703 743.9 759.903 747.4 743.503 747.4ZM743.503 703C753.303 703 761.603 699.4 768.403 692.2C775.403 685 778.903 674.7 778.903 661.3C778.903 647.9 775.503 637.6 768.703 630.4C762.103 623.2 753.903 619.6 744.103 619.6C734.103 619.6 725.803 623.2 719.203 630.4C712.603 637.4 709.303 647.7 709.303 661.3C709.303 674.7 712.503 685 718.903 692.2C725.503 699.4 733.703 703 743.503 703ZM909.619 523V745H858.319V523H909.619ZM936.595 661C936.595 643.8 939.795 628.7 946.195 615.7C952.795 602.7 961.695 592.7 972.895 585.7C984.095 578.7 996.595 575.2 1010.4 575.2C1022.2 575.2 1032.5 577.6 1041.3 582.4C1050.3 587.2 1057.2 593.5 1062 601.3V577.6H1113.3V745H1062V721.3C1057 729.1 1050 735.4 1041 740.2C1032.2 745 1021.9 747.4 1010.1 747.4C996.495 747.4 984.095 743.9 972.895 736.9C961.695 729.7 952.795 719.6 946.195 706.6C939.795 693.4 936.595 678.2 936.595 661ZM1062 661.3C1062 648.5 1058.4 638.4 1051.2 631C1044.2 623.6 1035.6 619.9 1025.4 619.9C1015.2 619.9 1006.5 623.6 999.295 631C992.295 638.2 988.795 648.2 988.795 661C988.795 673.8 992.295 684 999.295 691.6C1006.5 699 1015.2 702.7 1025.4 702.7C1035.6 702.7 1044.2 699 1051.2 691.6C1058.4 684.2 1062 674.1 1062 661.3ZM1218.51 747.4C1203.91 747.4 1190.91 744.9 1179.51 739.9C1168.11 734.9 1159.11 728.1 1152.51 719.5C1145.91 710.7 1142.21 700.9 1141.41 690.1H1192.11C1192.71 695.9 1195.41 700.6 1200.21 704.2C1205.01 707.8 1210.91 709.6 1217.91 709.6C1224.31 709.6 1229.21 708.4 1232.61 706C1236.21 703.4 1238.01 700.1 1238.01 696.1C1238.01 691.3 1235.51 687.8 1230.51 685.6C1225.51 683.2 1217.41 680.6 1206.21 677.8C1194.21 675 1184.21 672.1 1176.21 669.1C1168.21 665.9 1161.31 661 1155.51 654.4C1149.71 647.6 1146.81 638.5 1146.81 627.1C1146.81 617.5 1149.41 608.8 1154.61 601C1160.01 593 1167.81 586.7 1178.01 582.1C1188.41 577.5 1200.71 575.2 1214.91 575.2C1235.91 575.2 1252.41 580.4 1264.41 590.8C1276.61 601.2 1283.61 615 1285.41 632.2H1238.01C1237.21 626.4 1234.61 621.8 1230.21 618.4C1226.01 615 1220.41 613.3 1213.41 613.3C1207.41 613.3 1202.81 614.5 1199.61 616.9C1196.41 619.1 1194.81 622.2 1194.81 626.2C1194.81 631 1197.31 634.6 1202.31 637C1207.51 639.4 1215.51 641.8 1226.31 644.2C1238.71 647.4 1248.81 650.6 1256.61 653.8C1264.41 656.8 1271.21 661.8 1277.01 668.8C1283.01 675.6 1286.11 684.8 1286.31 696.4C1286.31 706.2 1283.51 715 1277.91 722.8C1272.51 730.4 1264.61 736.4 1254.21 740.8C1244.01 745.2 1232.11 747.4 1218.51 747.4ZM693.916 822.2C693.916 834.4 691.116 845.6 685.516 855.8C679.916 865.8 671.316 873.9 659.716 880.1C648.116 886.3 633.716 889.4 616.516 889.4H584.716V965H533.416V754.4H616.516C633.316 754.4 647.516 757.3 659.116 763.1C670.716 768.9 679.416 776.9 685.216 787.1C691.016 797.3 693.916 809 693.916 822.2ZM612.616 848.6C622.416 848.6 629.716 846.3 634.516 841.7C639.316 837.1 641.716 830.6 641.716 822.2C641.716 813.8 639.316 807.3 634.516 802.7C629.716 798.1 622.416 795.8 612.616 795.8H584.716V848.6H612.616ZM771.923 743V965H720.623V743H771.923ZM798.9 881C798.9 863.8 802.1 848.7 808.5 835.7C815.1 822.7 824 812.7 835.2 805.7C846.4 798.7 858.9 795.2 872.7 795.2C884.5 795.2 894.8 797.6 903.6 802.4C912.6 807.2 919.5 813.5 924.3 821.3V797.6H975.6V965H924.3V941.3C919.3 949.1 912.3 955.4 903.3 960.2C894.5 965 884.2 967.4 872.4 967.4C858.8 967.4 846.4 963.9 835.2 956.9C824 949.7 815.1 939.6 808.5 926.6C802.1 913.4 798.9 898.2 798.9 881ZM924.3 881.3C924.3 868.5 920.7 858.4 913.5 851C906.5 843.6 897.9 839.9 887.7 839.9C877.5 839.9 868.8 843.6 861.6 851C854.6 858.2 851.1 868.2 851.1 881C851.1 893.8 854.6 904 861.6 911.6C868.8 919 877.5 922.7 887.7 922.7C897.9 922.7 906.5 919 913.5 911.6C920.7 904.2 924.3 894.1 924.3 881.3ZM1060.71 922.7H1133.31V965H1003.41V924.2L1073.01 839.9H1004.01V797.6H1131.81V838.4L1060.71 922.7ZM1151.34 881C1151.34 863.8 1154.54 848.7 1160.94 835.7C1167.54 822.7 1176.44 812.7 1187.64 805.7C1198.84 798.7 1211.34 795.2 1225.14 795.2C1236.94 795.2 1247.24 797.6 1256.04 802.4C1265.04 807.2 1271.94 813.5 1276.74 821.3V797.6H1328.04V965H1276.74V941.3C1271.74 949.1 1264.74 955.4 1255.74 960.2C1246.94 965 1236.64 967.4 1224.84 967.4C1211.24 967.4 1198.84 963.9 1187.64 956.9C1176.44 949.7 1167.54 939.6 1160.94 926.6C1154.54 913.4 1151.34 898.2 1151.34 881ZM1276.74 881.3C1276.74 868.5 1273.14 858.4 1265.94 851C1258.94 843.6 1250.34 839.9 1240.14 839.9C1229.94 839.9 1221.24 843.6 1214.04 851C1207.04 858.2 1203.54 868.2 1203.54 881C1203.54 893.8 1207.04 904 1214.04 911.6C1221.24 919 1229.94 922.7 1240.14 922.7C1250.34 922.7 1258.94 919 1265.94 911.6C1273.14 904.2 1276.74 894.1 1276.74 881.3Z" fill="white"/>
<path d="M159 798.2H242.1L296.1 863L242.1 927.5H159L213 863L159 798.2ZM308.121 798.2H391.221L445.221 863L391.221 927.5H308.121L362.121 863L308.121 798.2Z" fill="#33D17A"/>
<path d="M514.816 995H1346.64V1010H514.816V995Z" fill="white"/>
</svg>
